<svg style="position: absolute; width: 0; height: 0">
  <defs>
    <clipPath id="tokens_stack_28">
      <path fill-rule="evenodd" clip-rule="evenodd" d="M14 28C21.732 28 28 21.732 28 14C28 6.26801 21.732 0 14 0C10.7641 0 7.78468 1.09781 5.41377 2.94131C8.03319 5.87962 9.625 9.75391 9.625 14C9.625 18.2461 8.03319 22.1204 5.41377 25.0587C7.78468 26.9022 10.7641 28 14 28Z" />
    </clipPath>
    <clipPath id="tokens_stack_32">
      <path fill-rule="evenodd" clip-rule="evenodd" d="M16 32A16 16 0 1 0 6.19 3.36C9.19 6.72 11 11.15 11 16c0 4.85-1.82 9.28-4.81 12.64A15.93 15.93 0 0 0 16 32Z" />
    </clipPath>
  </defs>
</svg>