<svg width="24" height="24" fill="none" xmlns="http://www.w3.org/2000/svg">
  <path fill-rule="evenodd" clip-rule="evenodd" d="M3 6.5a3.85 3.85 0 0 1 3.85-3.85h6A3.85 3.85 0 0 1 16.7 6.5v1.25a.85.85 0 0 1-1.7 0V6.5c0-1.19-.96-2.15-2.15-2.15h-6c-1.19 0-2.15.96-2.15 2.15v11c0 1.19.96 2.15 2.15 2.15h6c1.19 0 2.15-.96 2.15-2.15v-1.25a.85.85 0 0 1 1.7 0v1.25a3.85 3.85 0 0 1-3.85 3.85h-6A3.85 3.85 0 0 1 3 17.5v-11Z" fill="currentColor"/>
  <path fill-rule="evenodd" clip-rule="evenodd" d="M18.75 7.9a.85.85 0 0 1 1.2 0l3.5 3.5c.33.33.33.87 0 1.2l-3.5 3.5a.85.85 0 0 1-1.2-1.2l2.05-2.05h-6.95a.85.85 0 1 1 0-1.7h6.95L18.75 9.1a.85.85 0 0 1 0-1.2Z" fill="currentColor"/>
</svg>