<svg width="20" height="20" fill="none" xmlns="http://www.w3.org/2000/svg">
  <path d="M10.23 11.39a.85.85 0 0 0 0 1.7v-1.7ZM6.61 5.08a.85.85 0 1 0 1.7 0h-1.7Zm6.78 9.84a.85.85 0 1 0-1.7 0h1.7Zm-3.62-6.3a.85.85 0 1 0 0-1.7v1.7Zm1.38 3.46.28.8-.28-.8Zm1-6.9v4.37h1.7V5.18h-1.7Zm-1.92-1.83c1.09 0 1.92.85 1.92 1.83h1.7a3.58 3.58 0 0 0-3.62-3.53v1.7Zm0-1.7c-1.93 0-3.62 1.4-3.62 3.43h1.7c0-.95.79-1.73 1.92-1.73v-1.7ZM7.85 14.82v-4.37h-1.7v4.37h1.7Zm1.92 1.83a1.88 1.88 0 0 1-1.92-1.83h-1.7a3.58 3.58 0 0 0 3.62 3.53v-1.7Zm1.92-1.73c0 .95-.79 1.73-1.92 1.73v1.7c1.93 0 3.62-1.4 3.62-3.43h-1.7Zm-1.92-8a3.58 3.58 0 0 0-3.62 3.53h1.7c0-1 .83-1.84 1.92-1.84v-1.7Zm2.38 2.63c0 .78-.52 1.47-1.27 1.73l.55 1.6a3.54 3.54 0 0 0 2.42-3.33h-1.7Zm-1.27 1.73a2 2 0 0 1-.65.1v1.7c.42 0 .82-.06 1.2-.2l-.55-1.6Z" fill="currentColor"/>
</svg>