<svg width="20" height="20" fill="none" xmlns="http://www.w3.org/2000/svg">
  <path fill-rule="evenodd" clip-rule="evenodd" d="M3.23 14.67a.85.85 0 0 1 0-1.16l3.89-4.09c.3-.32.8-.32 1.1 0 .3.32.3.84 0 1.16l-2.56 2.7h10.17a.8.8 0 0 1 .78.81.8.8 0 0 1-.78.82H5.66l2.56 2.7c.3.31.3.83 0 1.15-.3.32-.8.32-1.1 0l-3.9-4.1Zm.16-8.76a.8.8 0 0 1 .78-.82h10.17l-2.56-2.7a.85.85 0 0 1 0-1.15c.3-.32.8-.32 1.1 0l3.9 4.1c.3.31.3.83 0 1.15l-3.9 4.09c-.3.32-.8.32-1.1 0a.85.85 0 0 1 0-1.16l2.56-2.7H4.17a.8.8 0 0 1-.78-.81Z" fill="currentColor"/>
</svg>