<svg width="16" height="16" fill="none" xmlns="http://www.w3.org/2000/svg">
  <path d="M8 16A8 8 0 1 0 8 0a8 8 0 0 0 0 16Z" fill="#08C"/>
  <path fill-rule="evenodd" clip-rule="evenodd" d="M5.77 5.29h4.49c.16 0 .32.02.49.1.16.08.3.21.39.37a1.07 1.07 0 0 1 0 1.02L8.3 11.66a.35.35 0 0 1-.6 0L4.9 6.8c-.06-.11-.16-.28-.18-.49a.95.95 0 0 1 .54-.93c.16-.07.33-.1.5-.09Zm1.88.7H5.77c-.12 0-.17 0-.2.02a.25.25 0 0 0-.14.24c0 .03.01.07.08.18v.01l2.14 3.73V5.98Zm.7 0v4.2l2.18-3.75a.38.38 0 0 0 .04-.18c0-.05 0-.1-.03-.15a.26.26 0 0 0-.06-.07.1.1 0 0 0-.03-.02.42.42 0 0 0-.19-.04H8.35Z" fill="#fff"/>
</svg>