<svg width="28" height="29" fill="none" xmlns="http://www.w3.org/2000/svg">
  <path fill-rule="evenodd" clip-rule="evenodd" d="M14 13a1.5 1.5 0 1 0 0 3 1.5 1.5 0 0 0 0-3Zm-3.5 1.5a3.5 3.5 0 1 1 7 0 3.5 3.5 0 0 1-7 0Z" fill="currentColor"/>
  <path fill-rule="evenodd" clip-rule="evenodd" d="M21.64 17.63a.5.5 0 0 1 .46-.31h.08a2.82 2.82 0 1 0 0-5.64h-.15a.5.5 0 0 1-.4-.2 1 1 0 0 0-.06-.18.5.5 0 0 1 .1-.55l.05-.05a2.82 2.82 0 1 0-4-3.99l-.04.05a.5.5 0 0 1-.55.1.5.5 0 0 1-.31-.46v-.08a2.82 2.82 0 1 0-5.64 0v.15a.5.5 0 0 1-.2.4 1 1 0 0 0-.18.06.5.5 0 0 1-.55-.1l-.05-.05a2.82 2.82 0 1 0-3.99 4l.05.04a.5.5 0 0 1 .1.55 1 1 0 0 0-.03.06.5.5 0 0 1-.44.32h-.07a2.82 2.82 0 0 0 0 5.64h.15a.5.5 0 0 1 .46.3v.01a.5.5 0 0 1-.1.55l-.05.05a2.82 2.82 0 1 0 4 3.99l.04-.05a.5.5 0 0 1 .55-.1l.06.03a.5.5 0 0 1 .32.44v.07a2.82 2.82 0 0 0 5.64 0v-.15a.5.5 0 0 1 .3-.46h.01a.5.5 0 0 1 .55.1l.05.05a2.82 2.82 0 0 0 3.99 0 2.82 2.82 0 0 0 0-4l-.05-.04a.5.5 0 0 1-.1-.55ZM14 5.5a.82.82 0 0 0-.82.82v.16a2.5 2.5 0 0 1-1.51 2.28 1 1 0 0 1-.26.08 2.5 2.5 0 0 1-2.56-.58h-.01l-.06-.06a.82.82 0 0 0-1.15 0 .82.82 0 0 0 0 1.16l.06.06a2.5 2.5 0 0 1 .51 2.73 2.5 2.5 0 0 1-2.28 1.6h-.1a.82.82 0 1 0 0 1.64h.16a2.5 2.5 0 0 1 2.45 2.96c-.09.5-.32.95-.67 1.3v.01l-.06.06a.82.82 0 0 0 0 1.15.82.82 0 0 0 1.16 0l.06-.06a2.5 2.5 0 0 1 2.73-.51 2.5 2.5 0 0 1 1.6 2.28v.1a.82.82 0 0 0 1.64 0v-.15a2.5 2.5 0 0 1 2.96-2.46c.5.09.95.32 1.3.67h.01l.06.06a.82.82 0 0 0 1.15 0 .82.82 0 0 0 0-1.16l-.06-.06a2.5 2.5 0 0 1 .42-3.85c.4-.27.88-.41 1.37-.41h.08a.82.82 0 0 0 0-1.64h-.15a2.5 2.5 0 0 1-2.3-1.51 1 1 0 0 1-.07-.26 2.5 2.5 0 0 1 .58-2.56v-.01l.06-.06a.82.82 0 0 0 0-1.15.82.82 0 0 0-1.16 0l-.06.06a2.5 2.5 0 0 1-3.85-.42 2.5 2.5 0 0 1-.41-1.37v-.08A.82.82 0 0 0 14 5.5Z" fill="currentColor"/>
</svg>